<?xml version="1.0" encoding="UTF-8"?>
<svg xmlns="http://www.w3.org/2000/svg" viewBox="0 0 256 256" role="img" aria-label="CivicPol logo">
  <defs>
    <linearGradient id="grad" x1="0" y1="0" x2="1" y2="1">
      <stop offset="0%" stop-color="#60A5FA"/>
      <stop offset="100%" stop-color="#22D3EE"/>
    </linearGradient>
    <radialGradient id="glow" cx="35%" cy="22%" r="60%">
      <stop offset="0%" stop-color="#ffffff" stop-opacity="0.58"/>
      <stop offset="100%" stop-color="#ffffff" stop-opacity="0"/>
    </radialGradient>
  </defs>
  <!-- Pin -->
  <path d="M128 16c-46 0-84 38-84 84 0 62 84 140 84 140s84-78 84-140c0-46-38-84-84-84z" fill="url(#grad)"/>
  <!-- Highlight -->
  <ellipse cx="92" cy="64" rx="52" ry="34" fill="url(#glow)"/>
  <!-- Road / civic path -->
  <path d="M96 68 C 150 62, 154 106, 116 124 C 84 139, 176 152, 148 194 C 132 218, 164 222, 176 230"
        fill="none" stroke="#ffffff" stroke-width="20" stroke-linecap="round" opacity="0.95"/>
  <path d="M96 68 C 150 62, 154 106, 116 124 C 84 139, 176 152, 148 194 C 132 218, 164 222, 176 230"
        fill="none" stroke="#0B1220" stroke-width="6" stroke-linecap="round" stroke-dasharray="18 12" opacity="0.85"/>
</svg>